/* XPM */
static char *faed94b132c540aafc6b99412c108c5fFteLF4DLnbRGPiGz[] = {
/* columns rows colors chars-per-pixel */
"32 32 165 2 ",
"   c None",
".  c #BD040F",
"X  c #B40610",
"o  c #BF0511",
"O  c #BE131B",
"+  c #B32317",
"@  c #BF2518",
"#  c #C30613",
"$  c #C20B16",
"%  c #CD0B17",
"&  c #C10F18",
"*  c #CD0F19",
"=  c #DC0615",
"-  c #D40A17",
";  c #DA0916",
":  c #D10C18",
">  c #C3111A",
",  c #C91019",
"<  c #C01E1A",
"1  c #D3151A",
"2  c #E30214",
"3  c #E60C16",
"4  c #E71418",
"5  c #E71E1B",
"6  c #C5241E",
"7  c #CF251E",
"8  c #C2281A",
"9  c #D7231E",
"0  c #DC231E",
"q  c #D9281F",
"w  c #D1361E",
"e  c #E6241D",
"r  c #E72A1F",
"t  c #C12B22",
"y  c #C03C23",
"u  c #C23F2A",
"i  c #DB3623",
"p  c #D53F27",
"a  c #DF3B25",
"s  c #E72F20",
"d  c #E83522",
"f  c #E63823",
"g  c #E83C24",
"h  c #CB4D2E",
"j  c #DF4529",
"k  c #D74A2F",
"l  c #DB4B2D",
"z  c #CD4F31",
"x  c #D35533",
"c  c #D15C3A",
"v  c #DD5C3A",
"b  c #E84226",
"n  c #E54629",
"m  c #E84528",
"M  c #E34C2E",
"N  c #E94C2D",
"B  c #E9502F",
"V  c #E44F30",
"C  c #E75232",
"Z  c #E95432",
"A  c #E55836",
"S  c #EA5936",
"D  c #E15F3B",
"F  c #EA5D39",
"G  c #D0613F",
"H  c #E1603C",
"J  c #EB633D",
"K  c #CD6342",
"L  c #CB6A4A",
"P  c #D66845",
"I  c #D86945",
"U  c #D8704E",
"Y  c #CF7453",
"T  c #DD7B58",
"R  c #EC6740",
"E  c #E46D47",
"W  c #EC6B45",
"Q  c #ED6F48",
"!  c #EE744D",
"~  c #E77A54",
"^  c #EF7C54",
"/  c #E37D58",
"(  c #DF825F",
")  c #EF825A",
"_  c #F0855E",
"`  c #CA8062",
"'  c #DB987B",
"]  c #E18A66",
"[  c #EA8B66",
"{  c #E98E6A",
"}  c #F08760",
"|  c #F08C65",
" . c #F18E68",
".. c #F1926C",
"X. c #E69270",
"o. c #E89775",
"O. c #E49877",
"+. c #ED9975",
"@. c #E69A79",
"#. c #E89B7A",
"$. c #F19670",
"%. c #F29A75",
"&. c #F29E79",
"*. c #F3A17D",
"=. c #DFA489",
"-. c #E3A386",
";. c #ECA484",
":. c #E1A68C",
">. c #E9AB8E",
",. c #F3A582",
"<. c #F4A986",
"1. c #F5AD8B",
"2. c #E4AC92",
"3. c #F0AF90",
"4. c #E3B49D",
"5. c #F5B393",
"6. c #F6B798",
"7. c #F7BA9B",
"8. c #ECBFA7",
"9. c #F7BEA2",
"0. c #F7C1A5",
"q. c #F5C3AA",
"w. c #F8C5AC",
"e. c #F8C8AF",
"r. c #EEC9B5",
"t. c #F3CAB4",
"y. c #F8CCB4",
"u. c #F3CDB8",
"i. c #F9CFB9",
"p. c #F7D2BF",
"a. c #F9D2BC",
"s. c #EFD4C5",
"d. c #F1D4C4",
"f. c #FAD6C2",
"g. c #FAD8C5",
"h. c #F3DACD",
"j. c #FBDCCA",
"k. c #FBDFD0",
"l. c #FCE3D3",
"z. c #FCE3D4",
"x. c #FCE3D4",
"c. c #F2E2DA",
"v. c #FDE7DB",
"b. c #FAE7DC",
"n. c #FBE6D9",
"m. c #FBE8DC",
"M. c #FDE9DC",
"N. c #FDEADF",
"B. c #FDEADE",
"V. c #FBEAE0",
"C. c #FDEDE3",
"Z. c #FDEFE6",
"A. c #FDEDE4",
"S. c #FEF1EA",
"D. c #FEF3EC",
"F. c #FEF5EF",
"G. c #FEF2EC",
"H. c #FEF6F1",
"J. c #FEF6F1",
"K. c #FEF9F5",
"L. c #FEF8F4",
"P. c #FFFAF8",
"I. c white",
"U. c #FFFEFD",
"Y. c #FFFEFE",
/* pixels */
"                      ^ ^ ^ ) ) ) ) ) ) )                       ",
"                  ! ! ! ^ }  ..... ._ ^ ^ ^ ^                   ",
"              J R Q _ &.,.,.*.&.&.%.$...| ^ ! ! !               ",
"            S F ^ *.*.*.&.%.%..... .| _ ) ^ ^ Q W R             ",
"          B S  .&.%.%.$..... .| _ ) ^ ^ ) 7.Q R J J F           ",
"        m S  .$..... .| } _ ) ^ ^ ! %.w.a.9.A F F S S Z         ",
"      d b )  .| } _ ) ^ ^ | ,.w.j.I.I.7.1.O.l Z Z C C N N       ",
"    5 r ! _ ) ^ ^ ^ ^ 5.v.I.I.I.I.I.z.1.;.x j N N N N m b b     ",
"    4 N ^ ^ ! ! Q ,.H.I.I.I.I.I.v.....#.G w n m m b b g f d     ",
"  2 3 Q Q W R J 5.I.I.I.j.p.p.I.I.I.I.J.s.;.F g f d d s r r e   ",
"  2 f J J F S Q C.Z.5.C 2 5 S %.I.I.I.I.I.I.I.5.m r r e 5 4 4   ",
"2 2 Z F Z N N 5.M.) M = = q.z.P.I.I.a.6.w.Z.I.I.k.F 4 4 3 3 2 2 ",
"= ; A C N n ! 5.M.S.V.u.b.I.I.I.I.I.I.F.w. .,.g.0.C.Z 2 2 2 2 2 ",
"= 0 M n V j.m.M.F.I.I.I.I.I.I.I.I.I.I.I.I.L.y.,.5.0.z.C 2 2 2 2 ",
"; 0 j a p.I.k v I.I.I.I.I.I.I.I.I.I.I.I.I.I.I.D.w.y.i.j.e 2 = = ",
"- q i D I.I.I.d.j.5.&._ _ |  .&.1.a.S.I.I.I.I.I.L.z.,.f.1.= = = ",
"- 9 q { I.I.a...%.1.6.7.7.7.6.5.,.&.&.6.M.I.I.I.I.I.[ = ~ = = ; ",
": 1 1 o.H.+.( K h x E ^ %.9.9.9.9.9.6.1.<.0.P.l.H.I.I.H ; ; - - ",
"* * : X.{ y . # # . @ I ! ! ,.w.w.w.e.z.C.C.S.l. .w.I.Z.q - - - ",
"* * * l 7 # : : - % . 8 / | ! ,.y.w.,.*.z.I.I.I.M.&.5.w.;.: : : ",
", * * * * * * : : : o o P $...^ 1.y.y.1.&.g.I.I.I.M.3.w.f.p * * ",
"  , , , * * * * * % # # z *.*... .y.a.a.6.,.V.I.I.I.` Y t.;.*   ",
"  , , , , , , * * $ $ $ c <.<.<.$.1.g.g.f.6.6.I.I.I.c.+ < @.,   ",
"    > , , , , , $ $ $ $ T 5.5.5.<.,.j.j.j.a.6.z.I.I.I.L X ,     ",
"    > > > > > & & & & 6 5.9.9.9.6.1.f.l.l.l.e.f.I.I.I.8.> &     ",
"      O O O O > > > > ] w.w.7.1.j.6.f.v.v.v.g.a.I.I.I.b.>       ",
"        O O O O > > U a.a.a.9.5.M.f.g.M.M.M.l.g.I.I.I.I.        ",
"          O O O t >.j.j.j.g.9.i.Z.C.z.Z.Z.Z.M.l.I.I.I.2.        ",
"            u -.j.z.z.z.z.g.y.C.S.S.S.S.S.S.Z.C.I.F.:.          ",
"              r.Z.Z.Z.Z.M.j.v.H.H.H.H.H.H.H.H.H.d.              ",
"                ' h.L.D.Z.D.P.P.P.P.P.P.P.P.h.=.                ",
"                      4.s.I.I.I.I.I.I.s.4.                      "
};
