/* XPM */
static char *bf5d4d5e3b4f425882cc5eebbb9db738bVq6KiavRWX7Rys4[] = {
/* columns rows colors chars-per-pixel */
"64 64 185 2 ",
"   c None",
".  c #B2040E",
"X  c #BB030E",
"o  c #B40611",
"O  c #BD0410",
"+  c #BB0B15",
"@  c #BD131B",
"#  c #BB1513",
"$  c #BD2519",
"%  c #B7311C",
"&  c #C10613",
"*  c #C20B16",
"=  c #CE0A16",
"-  c #C20F18",
";  c #CD0E19",
":  c #DC0615",
">  c #D50A17",
",  c #D90816",
"<  c #D10D18",
"1  c #C3111A",
"2  c #C91019",
"3  c #D3141A",
"4  c #D61C1C",
"5  c #DB1D1C",
"6  c #E30214",
"7  c #E60B16",
"8  c #E71319",
"9  c #E71B1B",
"0  c #C5281E",
"q  c #D7261F",
"w  c #DA241E",
"e  c #DD2A1F",
"r  c #C8321D",
"t  c #D1351E",
"y  c #E7241D",
"u  c #E72B1F",
"i  c #D32820",
"p  c #DA2C20",
"a  c #C43E24",
"s  c #CD3D22",
"d  c #CC3E28",
"f  c #C73926",
"g  c #DC3322",
"h  c #D23C23",
"j  c #DC3B25",
"k  c #E72F20",
"l  c #E73622",
"z  c #E83422",
"x  c #E43B24",
"c  c #E83C24",
"v  c #BA4B2E",
"b  c #BF5031",
"n  c #C64327",
"m  c #CF4C2F",
"M  c #C34D2E",
"N  c #D64326",
"B  c #DB4026",
"V  c #D74528",
"C  c #DF4328",
"Z  c #DD4F2F",
"A  c #D64B2C",
"S  c #C64A31",
"D  c #CC4B31",
"F  c #CF5637",
"G  c #D85838",
"H  c #E44226",
"J  c #E84226",
"K  c #E34629",
"L  c #E84629",
"P  c #E44B2D",
"I  c #E94B2C",
"U  c #E9502F",
"Y  c #E44F30",
"T  c #E45232",
"R  c #EA5432",
"E  c #E65A37",
"W  c #EA5936",
"Q  c #EA5D39",
"!  c #E15F3C",
"~  c #E5613D",
"^  c #EB633D",
"/  c #D66440",
"(  c #D66946",
")  c #D96D4A",
"_  c #D96B48",
"`  c #D57251",
"'  c #DB7450",
"]  c #DC7A56",
"[  c #D67F5F",
"{  c #DE7E5A",
"}  c #EC6740",
"|  c #EC6C45",
" . c #E56E49",
".. c #ED6F48",
"X. c #E66B46",
"o. c #ED734C",
"O. c #E4714C",
"+. c #EE7750",
"@. c #EE7C54",
"#. c #E27954",
"$. c #EF825A",
"%. c #E6825D",
"&. c #F0855D",
"*. c #D58362",
"=. c #DB8866",
"-. c #DF906F",
";. c #DD9373",
":. c #E48965",
">. c #EE8862",
",. c #E08F6E",
"<. c #E38764",
"1. c #F08760",
"2. c #F08B64",
"3. c #F18E68",
"4. c #E1906F",
"5. c #ED916C",
"6. c #F1936C",
"7. c #EB9673",
"8. c #E89976",
"9. c #E29778",
"0. c #EC9E7C",
"q. c #F19671",
"w. c #F29A75",
"e. c #F29E79",
"r. c #F3A17D",
"t. c #DEAA92",
"y. c #E2A285",
"u. c #EFAD8D",
"i. c #E6A688",
"p. c #F3A582",
"a. c #F4A986",
"s. c #F5AD8B",
"d. c #F5B08F",
"f. c #E0AA91",
"g. c #EFB294",
"h. c #E3B69F",
"j. c #EDB69A",
"k. c #F5B393",
"l. c #F5B798",
"z. c #F6BA9C",
"x. c #DFB5A1",
"c. c #E7B9A2",
"v. c #ECBEA7",
"b. c #F7BEA1",
"n. c #E9C2AE",
"m. c #F7C2A6",
"M. c #F5C4AA",
"N. c #F8C5AC",
"B. c #F8C8AF",
"V. c #EBC5B2",
"C. c #EBC9B7",
"Z. c #ECCBB9",
"A. c #F4CBB5",
"S. c #F8CAB2",
"D. c #F9CCB4",
"F. c #F9CCB3",
"G. c #F5CEB9",
"H. c #F9CFB8",
"J. c #F7D2BE",
"K. c #F9D0BA",
"L. c #F9D2BC",
"P. c #EFD1C1",
"I. c #FAD6C2",
"U. c #FAD8C6",
"Y. c #F7DBCB",
"T. c #FADAC9",
"R. c #FBDCCA",
"E. c #FBDDCC",
"W. c #F3DED3",
"Q. c #FADFD0",
"!. c #F6E0D4",
"~. c #FCE1D2",
"^. c #FCE3D5",
"/. c #FCE6D9",
"(. c #FDE9DD",
"). c #FDEDE4",
"_. c #FEF4EE",
"`. c #FEF2EC",
"'. c #FEF7F2",
"]. c #FEF6F1",
"[. c #FEF6F1",
"{. c #FEF9F5",
"}. c #FEF8F4",
"|. c white",
" X c #FFFFFE",
/* pixels */
"                                                  @.$.$.$.$.$.$.$.$.$.$.$.$.$.                                                  ",
"                                            +.+.+.+.@.@.@.@.@.@.@.@.@.$.$.$.$.@.@.@.                                            ",
"                                      o.o.o.o.o.+.+.+.+.+.+.+.@.@.@.@.@.@.@.@.@.@.@.@.+.+.                                      ",
"                                  | ......o.o.o.o.+.$.3.3.w.w.w.q.q.q.2.2.$.@.+.+.+.+.+.+.o.o.                                  ",
"                              } } } } | ....+.6.e.p.p.p.r.r.r.e.e.w.w.q.q.6.6.3.&.+.o.o.o.o.o.o.o.                              ",
"                            ^ ^ ^ ^ } | $.e.p.p.r.r.r.e.e.e.w.w.q.q.6.6.6.3.3.2.2.&.$.+.o.o.........                            ",
"                        W Q Q Q ^ } &.r.r.r.r.e.e.e.w.w.w.q.6.6.6.6.3.3.2.2.&.&.$.$.@.@.+.o.| | | } } }                         ",
"                      R W W W Q o.w.r.e.e.w.w.w.w.q.q.6.6.6.3.3.3.2.2.&.&.$.$.@.@.+.+.o.o.o...} } } ^ ^ ^                       ",
"                    U R R R Q &.e.w.w.w.w.q.q.6.6.6.6.3.3.3.2.1.&.&.$.$.@.@.+.+.o.o.o.z...| } ^ ^ ^ ^ ^ Q Q                     ",
"                  I I I U ^ 3.w.w.q.q.6.6.6.3.3.3.3.2.2.&.&.&.$.$.@.@.+.+.+.o.o.o.$.T.S.} ^ ^ ^ ^ Q Q Q Q W W                   ",
"                L L L I Q 6.q.6.6.6.6.3.3.3.2.2.1.&.&.$.$.@.@.@.+.+.o.o.o.o...$.D.{.m.K.Q Q Q Q Q W W W W W W R                 ",
"              c J J L } 6.6.6.3.3.3.2.2.1.&.&.$.$.$.@.@.+.+.+.o.o.o.o...2.d./.|.{.l.m.b.Z T W W W W W W R R R R U               ",
"            z z c c R 2.3.3.2.2.1.&.&.$.$.$.@.@.@.+.+.o.o.o.o.+.q.l.J.'.|.|.|.^.a.z.D.{ V T W R R R R R R U I I I I             ",
"            u z z I &.2.1.&.&.$.$.$.@.@.@.+.+.+.o.o.o.3.k.D.).|.|.|.|.|.|.|.m.q.k.N.b.G V I R R R U I I I I I L L L             ",
"          y y u c +.&.$.$.@.@.@.@.+.+.+.o.o.o.o.r.S.'.|.|.|.|.|.|.|.|.|.|.|.|.H.a.b.] h N I U I I I I I L L L L J J J           ",
"        9 9 y y } $.@.@.@.+.+.o.o.o.o.o...$.S.'.|.|.|.|.|.|.|.|.|.|.|.|.).N.q.q.k.9.h h B I I L L L L L L J J J J c c c         ",
"        8 8 9 J @.+.+.+.o.o.o.o.....| o.S.|.|.|.|.|.|.|.|.|.|.|.|.N.r.&.o.$.w.l.,.s t h H L L L L J J J J c c c c z z z         ",
"      7 7 7 8 ..o.o.o.o.....| | } } &.'.|.|.|.|.|.|.|.|.|.|.|.|.|.|.{.U.m.B.l.*.s r t g J J J J J J c c c c z z z k u u y       ",
"      6 6 7 I o.....| | } } ^ ^ ^ r.|.|.|.|.|.|.|.|.|.|.|.|.|.|.|.|.|.|.|.|.|.[.Z.=.A H c c c c c c z z z z k u u u y y y       ",
"    6 6 6 7 } } } } ^ ^ ^ Q Q Q @.'.|.|.|.|.|.|._.l.e.e.e.L.|.|.|.|.|.|.|.|.|.|.|.|.|.I.o.z z z z z k k u u u y y y 9 9 9 8     ",
"    6 6 6 l ^ ^ ^ Q Q Q W W W R ~.|.|.|.|.|.R.@.6 6 6 6 6 l o._.|.|.|.|.|.|.|.|.|.|.|.|.|.I.o.u u u u y y y y 9 9 9 8 8 8 7     ",
"    6 6 6 W ^ Q W W W R R U I q.|.T._.|.G.~ : 6 6 6 6 s.K.b.k.).|.|.|.|.|.|.|.|.|.|.|.|.|.|.|.d.J y y 9 9 9 9 8 8 8 8 7 7 7     ",
"  6 6 6 9 Q Q W W R I I L L L ~.|.T.j j , , , : ~ w X.~.K.H.{.|.|.|.|.|.|.R.|.|.|.|.|.|.|.|.|.|.).Q 9 9 8 8 8 8 7 7 7 6 6 6 6   ",
"  : 6 6 H E R T T I P L J J W |.|.{.5.#.5.q , , q ! (./.).|.|.|.|.|.|.|.|.I.w.&.w.m./.|.|.|.|.|.|.|.&.8 7 7 7 7 6 6 6 6 6 6 6   ",
"  : : : I T T I P L L H x l W N.|.|.{.(.).).i.7.g.|. X|.|.|.|.|.|.|.|.|.|.|.|.'.N.2.$.6.z.`.|.|.D.{.|.a.6 6 6 6 6 6 6 6 6 6 6   ",
": : : : T Y I L K H x l ^ 7.>.^ | (.|.|.|.|.|.|.|.|.|.|.|.|.|.|.|.|.|.|.|.|.|.|.|.|.D.q.3.6.l./.B.l.(.|.l.6 6 6 6 6 6 6 6 6 6 6 ",
", , : 5 P P K K H x } E.|.|.|.|.E.o.E.|.|.|.|.|.|.|.|.|.|.|.|.|.|.|.|.|.|.|.|.|.|.|.|.{.L.p.e.r.S.b.l.U.|.a.6 6 6 6 6 6 6 6 6 6 ",
", , , e K K H x x ~ _.|.|.T.T.|.|.|.M._.|.|.|.|.|.|.|.|.|.|.|.|.|.|.|.|.|.|.|.|.|.|.|.|.|.`.N.l.l.B.D.N.K. X@.6 6 6 6 6 6 6 6 : ",
", , , p C C j g K _.|.|.#.G , Y.|.|.|.|.|.|.|.|.|.|.|.|.|.|.|.|.|.|.|.|.|.|.|.|.|.|.|.|.|.|.|.T.m.B.D.L.L.I.'.^ 6 6 6 6 : : : : ",
", , , g j j g g u.|.|.|.(./.0.0.|.|.|.|.|.|.|.|.|.|.|.|.|.|.|.|.|.|.|.|.|.|.|.|.|.|.|.|.|.|.|.|.(.B.D.L.U.R.T.).y : : : : : : : ",
", , , g g g p j _.|.|.|.|.|. X!.|.|.|.).I.b.p.r.6.2.2.3.6.a.a.N.I.).|.|.|.|.|.|.|.|.|.|.|.|.|.|.|.'.B.s.L.E.^.~.F.: : : : : , , ",
", , , p p p q %.|.|.|.|.|.|.|.|.).k.6.$.$.&.3.6.6.6.q.6.3.6.6.6.6.q.e.b.E.|.|.|.|.|.|.|.|.|.|.|.|.|.|.@.: T 0.I.(.@.: , , , , , ",
"> , , q q w 4 l.|.|.|.|.|.|.R.w.@.3.e.s.l.z.z.z.z.z.z.z.z.l.s.a.r.w.w.w.e.p.S.`.|.|.|.|.|.|.|.|.|.|.|.|.~ : : :  .z., , , , , , ",
"< < > 4 4 4 3 G.|.|.|.|.^.q.&.r.l.b.b.b.b.b.b.b.b.b.b.b.b.b.b.b.b.z.k.p.r.r.r.p.N._.|.|.|.|.|.|.|.|.|.|._.T , , , , , , , , , , ",
"< < < 3 3 < , _.|.|.|.l.&.s.g.4.' _  .o.&.2.r.l.b.b.b.b.m.b.b.b.b.b.b.b.z.s.p.p.a.a.I.{.|.|.|.|.|.|.|.|.|.(.q , , , , , , , , , ",
"; ; < 3 < < > |.|.'.w.7.*.M $ X X X # a / o...^ @.w.m.m.m.m.m.m.m.m.m.m.m.m.b.k.a.s.s.l.`.|.'.S.'.|.|.|.|.|.M., , , , , , , , , ",
"; ; ; < < < < |.'.7.` $ X X X X X X X X X n #.&.o.} o.r.N.N.N.N.N.N.N.N.N.B.J.R.E.I.U.U.T.{.|.S.2.m.'.|.|.|.|.:., , , , , > > > ",
"; ; ; ; ; < < Q.e.m X X O & = , , = & X X X r #.2.2.o...$.z.N.N.N.N.N.N.N.E. X|.|.|.|.|.|.|.|.|.D.2.q.L.|.|.{._.B , > > > < < < ",
"; ; ; ; ; ; ; O.i * O * < < < > > > , & X X X a %.3.3.&.o.+.l.S.S.S.S.N.k.s.a.R.|.|.|.|.|.|.|.|.|.L.w.w.l.{.S.`.M.> < < < < < ; ",
"  ; ; ; ; ; ; ; ; = = < < < < < < < < > O O O O ( 6.6.6.2.+.@.z.F.F.F.F.l.w.w.w.z.{.|.|.|.|.|.|.|.|.R.k.p.l.N.N. XG < < < < <   ",
"  2 ; ; ; ; ; ; ; ; ; ; ; ; < < < < < < & O O O 0 5.q.q.q.3.@.$.b.D.D.D.D.B.p.w.w.s.{.|.|.|.|.|.|.|.|.H.m.l.D.N.L./.< < ; ; ;   ",
"  2 2 2 ; ; ; ; ; ; ; ; ; ; ; ; ; ; < < & & & & & <.w.w.w.w.3.&.3.F.K.K.K.K.K.k.r.r.k.{.|.|.|.|.|.|.|.'.z.S.K.U.I.~.] ; ; ; ;   ",
"    2 2 2 2 2 ; ; ; ; ; ; ; ; ; ; ; ; ; & & & & & ' r.r.r.r.e.3.2.p.L.L.L.L.L.L.l.p.p.l.{.|.|.|.|.|.|.|.x.b ;.G.E.U.Y.; ; ;     ",
"    2 2 2 2 2 2 2 2 ; ; ; ; ; ; ; ; ; * & & & & & _ p.p.p.p.p.e.3.3.m.I.I.I.I.I.I.z.a.a.H.|.|.|.|.|.|.|.}.v . % -.^.~.] ; ;     ",
"    2 2 2 2 2 2 2 2 2 2 2 ; ; ; 2 2 ; & & & & & & ) a.a.a.a.a.a.q.6.p.U.U.U.U.U.U.I.l.s.s.).|.|.|.|.|.|.|.t.. . O h j.v.2 2     ",
"      2 2 2 2 2 2 2 2 2 2 2 2 2 2 2 * & & & & & & <.s.s.s.s.s.s.p.w.w.D.U.U.T.T.U.U.L.l.l.z.|.|.|.|.|.|.|.{.% . o * 2 G 2       ",
"      1 1 1 2 2 2 2 2 2 2 2 2 2 2 - * * * * * * * 8.k.k.k.k.k.k.k.r.r.l.R.R.R.R.R.R.R.N.l.l.(.|.|.|.|.|.|.|.*.. o + 2 2 2       ",
"        1 1 1 1 1 2 2 2 2 2 2 - - - - - * * * * f l.l.l.l.l.l.l.l.a.p.s.E.E.E.E.E.E.E.T.b.b.L.|.|.|.|.|.|.|.(.- + o - 2         ",
"        1 1 1 1 1 1 1 2 2 1 - - - - - - - - - - ] b.b.b.b.b.b.b.b.l.s.s.U.~.~.~.~.~.~.~.D.m.m.{.|.|.|.|.|.|.|.d 2 1 + 2         ",
"          1 1 1 1 1 1 1 @ @ @ @ - - - - - - - 0 l.m.m.m.m.m.m.m.N.b.k.k.K.^.^.^.^.^.^.^.T.S.S.).|.|.|.|.|.|.|.( 2 2 2           ",
"            @ @ @ @ @ @ @ 1 @ 1 1 1 1 1 1 1 1 :.N.N.N.N.N.l.l.N.^.D.l.l.K./././././././.^.D.D./.|.|.|.|.|.|.|.;.1 1             ",
"            @ @ @ @ @ @ @ @ 1 1 1 1 1 1 1 1 F S.F.F.F.F.F.l.a.M.(./.N.b.S.(.(.(.(.(.(.(.(.I.L.E.|.|.|.|.|.|.|.v.1 1             ",
"              @ @ @ @ @ @ @ @ @ 1 1 1 1 1 D B.K.K.K.K.K.K.k.s.m.(.(.^.N.H.(.(.(.(.(.(.(.(.E.U.~.|.|.|.|.|.|.|.Z.1               ",
"                @ @ @ @ @ @ @ @ 1 1 1 1 D G.I.I.I.I.I.I.K.l.l.K.).).).R.J.).).).).).).).).~.E./.|.|.|.|.|.|.|.V.                ",
"                  @ @ @ @ @ @ @ @ @ @ ` J.T.T.T.T.T.T.T.S.b.b.^.).).).).R.).).).).).).).).(.~.~.|.|.|.|.|.|._.                  ",
"                    @ @ @ @ @ @ @ a j.E.E.E.E.E.E.E.E.E.N.N.S.`.`.`.`.`.(.`.`.`.`.`.`.`.).).(.).|.|.|.|.|.!.                    ",
"                      @ @ @ @ S i.^.^.^.^.^.^.^.^.^.^.U.D.D.^.`.`.`.`.`.`.`.`.`.`.`.`.`.`.).).`.|.|.|.|.W.                      ",
"                        @ [ A.(.(.(.(.(.(.(.(.(.(.(.^.I.I.U._._._._._._._._._._._._._._._.`.`._.|.|.|.c.                        ",
"                          y./.).).).).).).).).).).).Q.E.E.`.'.'.'.'.'.'.'.'.'.'.'.'.'.'.'.'.'.{.|._.i.                          ",
"                              v.`.`.`.`.`.`.`.`.`.(././.).{.{.{.{.{.{.{.{.{.{.{.{.{.{.{.{.{.{. XV.                              ",
"                                  P.{.{.{.{.{.'.`.).).`.{.{.{.{.{.{.{.{.{.{.{.{.{.{.{.{.{.{.P.                                  ",
"                                      n. X X{.'.'.'.'. X X X X X X X X X X X X X X X X Xn.                                      ",
"                                          t.C.{.{. X|.|.|.|.|.|.|.|.|.|.|.|.|.|.|.Z.f.                                          ",
"                                                  h.Z.W.|.|.|.|.|.|.|.|.W.Z.h.                                                  "
};
