/* XPM */
static char *c54c12d8fbc74a8cc009ac3ec8d7bd9dNVMkkTXmjGmVb4AE[] = {
/* columns rows colors chars-per-pixel */
"16 16 175 2 ",
"   c None",
".  c #BE0511",
"X  c #BF1019",
"o  c #BE1119",
"O  c #BE131B",
"+  c #BF131B",
"@  c #C70613",
"#  c #C00A15",
"$  c #C20C16",
"%  c #CE0B17",
"&  c #C00F18",
"*  c #C10F18",
"=  c #CB0F19",
"-  c #CF0D18",
";  c #CE0E19",
":  c #D90716",
">  c #DF0415",
",  c #D50A17",
"<  c #C31019",
"1  c #C6111A",
"2  c #C81019",
"3  c #C91019",
"4  c #CA1019",
"5  c #CE1019",
"6  c #D4191B",
"7  c #DE1D1C",
"8  c #E40113",
"9  c #E60013",
"0  c #E20214",
"q  c #E71218",
"w  c #E71D1B",
"e  c #D9201D",
"r  c #CB321F",
"t  c #E7251D",
"y  c #E72D1F",
"u  c #E43522",
"i  c #E83923",
"p  c #C7472A",
"a  c #DF4026",
"s  c #DA4B2F",
"d  c #CE5033",
"f  c #CD5737",
"g  c #CF583A",
"h  c #D15D3C",
"j  c #DE5F3C",
"k  c #E84125",
"l  c #E84528",
"z  c #E94B2C",
"x  c #E65432",
"c  c #E95130",
"v  c #EA5331",
"b  c #EA5432",
"n  c #EA5533",
"m  c #EA5634",
"M  c #E65836",
"N  c #E35F3C",
"B  c #EB5F3A",
"V  c #E7603C",
"C  c #EB613B",
"Z  c #EA623C",
"A  c #EB633D",
"S  c #D86642",
"D  c #D96B48",
"F  c #DB7E5C",
"G  c #E06945",
"H  c #E86842",
"J  c #E9724A",
"K  c #ED714A",
"L  c #EE754E",
"P  c #EA7A52",
"I  c #EE7951",
"U  c #EF7C54",
"Y  c #EF7F57",
"T  c #E07E5A",
"R  c #EE8159",
"E  c #EF835B",
"W  c #F0855D",
"Q  c #F0865F",
"!  c #D98D6D",
"~  c #D38D70",
"^  c #E38560",
"/  c #EE8862",
"(  c #F08760",
")  c #F08962",
"_  c #F08A62",
"`  c #F08B64",
"'  c #F08C65",
"]  c #F08D66",
"[  c #F18D67",
"{  c #F18E67",
"}  c #F18E68",
"|  c #E6906D",
" . c #F0926C",
".. c #F1936D",
"X. c #F1946F",
"o. c #F19570",
"O. c #F29873",
"+. c #F29A74",
"@. c #F29B77",
"#. c #F29C78",
"$. c #F29D79",
"%. c #F3A07B",
"&. c #F3A17D",
"*. c #F1A27E",
"=. c #F3A27F",
"-. c #DFA78D",
";. c #E2A082",
":. c #E0A88E",
">. c #F3A481",
",. c #F3A581",
"<. c #F3A582",
"1. c #F4A684",
"2. c #F4A885",
"3. c #F4A986",
"4. c #F4AB89",
"5. c #F5AC8A",
"6. c #EBAE91",
"7. c #EEB193",
"8. c #EDB194",
"9. c #F5B190",
"0. c #F5B292",
"q. c #F6B393",
"w. c #F2B395",
"e. c #F3B495",
"r. c #F6B494",
"t. c #F6BA9B",
"y. c #F5BA9D",
"u. c #F7BDA0",
"i. c #F7BEA2",
"p. c #F7BFA2",
"a. c #F7C1A5",
"s. c #F7C1A6",
"d. c #F7C2A6",
"f. c #F5C7AF",
"g. c #F8C5AB",
"h. c #F8C6AC",
"j. c #F8C8AF",
"k. c #EECCBA",
"l. c #F8CBB3",
"z. c #F9CDB5",
"x. c #F9CEB6",
"c. c #F9D1BB",
"v. c #F9D2BD",
"b. c #FAD4BF",
"n. c #EFD2C2",
"m. c #FAD5C0",
"M. c #FAD5C1",
"N. c #FAD6C3",
"B. c #FAD7C4",
"V. c #FAD8C5",
"C. c #FBDBC9",
"Z. c #FBDCCB",
"A. c #FBDDCC",
"S. c #FBDFCF",
"D. c #F5E0D4",
"F. c #FCE1D1",
"G. c #FCE1D2",
"H. c #FCE4D6",
"J. c #FDE7DB",
"K. c #FDEADE",
"L. c #FDEBDF",
"P. c #FDEBE0",
"I. c #FDECE1",
"U. c #FDECE2",
"Y. c #FDEEE4",
"T. c #FEF1E9",
"R. c #FEF2EB",
"E. c #FEF3EC",
"W. c #FEF3ED",
"Q. c #FBF4EF",
"!. c #FEF5F0",
"~. c #FEF8F4",
"^. c #FEF9F5",
"/. c #FFFAF8",
"(. c white",
/* pixels */
"          I ) [ } ` R           ",
"      C [ <.1.=.$.o.[ U K       ",
"    b X.$.O...[ W <.=.H Z B     ",
"  y W [ ( @.j.J.E.<.D x b v z   ",
"  v U L l.(.V.U.s.6.F m l k i   ",
"0 Z C ..e.u R ..(.v.K.!.` t w q ",
"7 M / P.(./.(.(.(.E.u.3.u.U 9 9 ",
"e N (.8.c.t.u.s.b.^.(./.M.M.V > ",
"6 G V.^ S P 5.9.4.=.g.H.(.w.a : ",
"5 s h r @ p J [ s.4.C.U.%.M.j , ",
"3 = ; ; % . T ) <.s.<.^.R.! 7.; ",
"  1 3 3 $ # | 3.@.B.h.x.(.~ f   ",
"  o o & & d y.9.9.M.F.g.(.(.<   ",
"    o o g f.x.r.Z.F.K.S.(.Q.    ",
"      ;.H.H.M.S.R.R.R.Y.D.      ",
"        -.k.E./././.n.:.        "
};
